<?xml version="1.0" standalone="no"?>
<!DOCTYPE svg PUBLIC "-//W3C//DTD SVG 20010904//EN"
 "http://www.w3.org/TR/2001/REC-SVG-20010904/DTD/svg10.dtd">
<svg version="1.0" xmlns="http://www.w3.org/2000/svg"
 width="500.000000pt" height="500.000000pt" viewBox="0 0 500.000000 500.000000"
 preserveAspectRatio="xMidYMid meet">
<metadata>
Created by potrace 1.11, written by Peter Selinger 2001-2013
</metadata>
<g transform="translate(0.000000,500.000000) scale(0.100000,-0.100000)"
fill="#000000" stroke="none">
<path d="M3138 4995 c-1 -1 -23 -5 -48 -8 -410 -51 -796 -301 -1028 -664 l-33
-51 -127 0 c-70 0 -140 -3 -157 -5 -16 -3 -55 -8 -85 -12 -30 -4 -100 -18
-155 -32 -550 -142 -977 -546 -1149 -1088 -14 -44 -28 -93 -31 -110 -3 -16
-13 -66 -21 -110 -25 -135 -25 -368 0 -512 3 -18 8 -47 11 -64 10 -57 45 -173
76 -254 80 -209 192 -385 345 -545 58 -61 64 -71 84 -150 62 -244 199 -514
360 -710 275 -335 670 -568 1100 -650 181 -34 510 -35 661 -1 24 6 60 13 79
16 109 18 388 123 482 182 21 13 40 23 44 23 10 0 185 120 239 164 79 64 237
224 296 301 111 143 212 319 265 462 14 38 28 75 31 83 3 8 7 17 8 20 0 3 9
32 19 65 18 58 21 73 31 125 2 14 9 48 14 75 24 130 32 340 18 490 -14 147
-62 351 -114 483 l-25 62 26 33 c183 223 268 391 330 647 40 169 42 397 5 583
-107 535 -513 968 -1039 1108 -52 14 -48 13 -125 29 -52 11 -378 23 -387 15z"/>
</g>
</svg>
